# xmcd CD database file
#
# Track frame offsets:
#	150
#	19392
#	38490
#	57702
#	79479
#
# Disc length: 1372 seconds
#
# Revision: 0
# Processed by: cddbd v1.5PL3 Copyright (c) Steve Scherf et al.
# Submitted via: CDex 1.51
#
DISCID=3f055a05
DTITLE=undercover - 明日あての手紙
DYEAR=2003
DGENRE=Rock
TTITLE0=ハイビスカス
TTITLE1=やわらかな午後
TTITLE2=リリィ
TTITLE3=咲かない花
TTITLE4=natural air
EXTD=YEAR: 2003
EXTT0=
EXTT1=
EXTT2=
EXTT3=
EXTT4=
PLAYORDER=
